HIERARCHY
ROOT Hips
{
 OFFSET 0.000000 0.000000 0.000000
 CHANNELS 6 Xposition Yposition Zposition Yrotation Xrotation Zrotation
 JOINT Chest
 {
  OFFSET 0.000000 9.585900 0.002600
  CHANNELS 3 Yrotation Xrotation Zrotation
  JOINT Chest2
  {
   OFFSET 0.000000 9.601200 -0.005300
   CHANNELS 3 Yrotation Xrotation Zrotation
   JOINT Chest3
   {
    OFFSET 0.000000 9.561800 0.000000
    CHANNELS 3 Yrotation Xrotation Zrotation
    JOINT Chest4
    {
     OFFSET 0.000000 9.552100 0.000000
     CHANNELS 3 Yrotation Xrotation Zrotation
     JOINT Neck
     {
      OFFSET 0.000000 14.453000 0.000000
      CHANNELS 3 Yrotation Xrotation Zrotation
      JOINT Head
      {
       OFFSET 0.000000 8.936500 -0.011300
       CHANNELS 3 Yrotation Xrotation Zrotation
       End Site
       {
        OFFSET 0.000000 17.073600 -0.006000
       }
      }
     }
     JOINT RightCollar
     {
      OFFSET -2.921100 9.558500 0.000000
      CHANNELS 3 Yrotation Xrotation Zrotation
      JOINT RightShoulder
      {
       OFFSET -13.519700 0.000000 0.000000
       CHANNELS 3 Yrotation Xrotation Zrotation
       JOINT RightElbow
       {
        OFFSET 0.000000 -29.696600 0.000000
        CHANNELS 3 Yrotation Xrotation Zrotation
        JOINT RightWrist
        {
         OFFSET 0.000000 -24.004700 0.000000
         CHANNELS 3 Yrotation Xrotation Zrotation
         End Site
         {
          OFFSET 0.000000 -17.728500 0.000000
         }
        }
       }
      }
     }
     JOINT LeftCollar
     {
      OFFSET 2.921100 9.558500 0.000000
      CHANNELS 3 Yrotation Xrotation Zrotation
      JOINT LeftShoulder
      {
       OFFSET 13.519700 0.000000 0.000000
       CHANNELS 3 Yrotation Xrotation Zrotation
       JOINT LeftElbow
       {
        OFFSET 0.000000 -29.696600 0.000000
        CHANNELS 3 Yrotation Xrotation Zrotation
        JOINT LeftWrist
        {
         OFFSET 0.000000 -24.004700 0.000000
         CHANNELS 3 Yrotation Xrotation Zrotation
         End Site
         {
          OFFSET 0.000000 -17.728500 0.000000
         }
        }
       }
      }
     }
    }
   }
  }
 }
 JOINT RightHip
 {
  OFFSET -7.771700 -0.012900 -0.001300
  CHANNELS 3 Yrotation Xrotation Zrotation
  JOINT RightKnee
  {
   OFFSET 0.000000 -40.869800 0.001200
   CHANNELS 3 Yrotation Xrotation Zrotation
   JOINT RightAnkle
   {
    OFFSET 0.000000 -39.717900 0.002100
    CHANNELS 3 Yrotation Xrotation Zrotation
    JOINT RightToe
    {
     OFFSET 0.000000 -4.965400 11.033500
     CHANNELS 3 Yrotation Xrotation Zrotation
     End Site
     {
      OFFSET 0.000000 -1.423100 5.872300
     }
    }
   }
  }
 }
 JOINT LeftHip
 {
  OFFSET 7.771700 -0.012900 -0.001300
  CHANNELS 3 Yrotation Xrotation Zrotation
  JOINT LeftKnee
  {
   OFFSET 0.000000 -40.869800 0.001200
   CHANNELS 3 Yrotation Xrotation Zrotation
   JOINT LeftAnkle
   {
    OFFSET 0.000000 -39.717900 0.002100
    CHANNELS 3 Yrotation Xrotation Zrotation
    JOINT LeftToe
    {
     OFFSET 0.000000 -4.965400 11.033500
     CHANNELS 3 Yrotation Xrotation Zrotation
     End Site
     {
      OFFSET 0.000000 -1.423100 5.872300
     }
    }
   }
  }
 }
}
MOTION
Frames: 9
Frame Time: 0.008333
-23.214518 50.340860 27.112768 162.743182 -8.337932 -0.412293 4.187484 7.887208 0.803856 0.207160 0.416948 -0.009831 0.371611 0.739501 -0.011445 3.791870 7.465492 0.113904 2.863360 18.757259 0.694526 5.069264 -0.961642 0.345506 2.376936 6.430048 1.053551 -7.776395 -14.589963 -10.954859 -60.181721 -70.389965 86.783393 -3.577530 -2.435303 -21.625055 -6.668623 2.859297 0.307371 22.445502 -7.037417 2.857531 81.751829 -78.825718 -104.164169 1.343277 7.571639 10.895516 -3.362291 -72.280590 0.331456 -134.924609 82.047474 -134.120727 -3.757363 -16.655943 0.713836 -0.263721 0.693098 -0.112171 -10.240443 -75.593358 29.374531 117.462491 79.532946 114.230381 -16.809696 -23.477784 0.824832 -0.272543 -0.937572 -0.136543
-23.215577 50.338829 27.112518 162.743493 -8.353557 -0.415165 4.182191 7.894970 0.804257 0.205759 0.416452 -0.009618 0.371003 0.739840 -0.011448 3.766284 7.466692 0.106650 2.885981 18.768024 0.705319 5.098041 -0.930197 0.356080 2.411848 6.421450 1.064944 -7.757281 -14.580024 -10.956044 -59.701113 -70.426065 86.196187 -3.574112 -2.444731 -21.615391 -6.637210 2.860296 0.304027 22.386319 -7.030469 2.859238 81.853798 -79.133060 -104.148931 1.144897 7.650677 10.629973 -3.348087 -72.267115 0.330500 -134.915011 82.046438 -134.123598 -3.751628 -16.650496 0.735053 -0.281905 0.691423 -0.120256 -10.264282 -75.577066 29.396545 117.478504 79.531565 114.242661 -16.802640 -23.482387 0.820721 -0.250547 -0.937499 -0.129002
-23.217355 50.336735 27.112016 162.733360 -8.369554 -0.413759 4.176851 7.892783 0.798600 0.213249 0.425882 -0.007086 0.370798 0.740244 -0.011401 3.752109 7.464113 0.105759 2.898738 18.780775 0.709980 5.128069 -0.880379 0.375510 2.441656 6.414700 1.071372 -7.712746 -14.600381 -10.920093 -59.019474 -70.504899 85.352141 -3.560681 -2.456798 -21.599358 -6.623521 2.856923 0.284632 22.362573 -7.021899 2.877427 82.011459 -79.489052 -104.214283 0.915267 7.739398 10.289048 -3.313115 -72.252742 0.319978 -134.889204 82.046100 -134.111509 -3.742374 -16.650098 0.748803 -0.303701 0.695763 -0.122984 -10.280912 -75.558852 29.419849 117.501978 79.529270 114.260304 -16.801384 -23.486584 0.817850 -0.225525 -0.938787 -0.121668
-23.218805 50.334643 27.111453 162.721505 -8.386403 -0.416147 4.172433 7.893372 0.798019 0.187946 0.407068 -0.012338 0.375325 0.745915 -0.009653 3.732713 7.468645 0.108774 2.952261 18.805506 0.710259 5.135033 -0.868293 0.382930 2.507096 6.417175 1.077224 -7.712370 -14.585949 -10.921371 -58.383244 -70.606546 84.571222 -3.540167 -2.472835 -21.581394 -6.580971 2.862036 0.264883 22.345889 -7.007512 2.893818 82.265014 -79.897770 -104.371640 0.673561 7.841225 9.905209 -3.244409 -72.238597 0.294177 -134.809846 82.036289 -134.041363 -3.739261 -16.645677 0.760319 -0.307807 0.696067 -0.118515 -10.306945 -75.540418 29.449575 117.502379 79.509799 114.256853 -16.792752 -23.491952 0.817797 -0.218867 -0.940270 -0.124860
-23.215696 50.333222 27.107579 162.682541 -8.430272 -0.437238 4.176734 7.906292 0.814629 0.212634 0.426600 -0.006775 0.355076 0.732253 -0.013746 3.737596 7.475721 0.112646 2.966169 18.816961 0.713600 5.149872 -0.859723 0.380847 2.541973 6.412975 1.083990 -7.704593 -14.599542 -10.885568 -57.535353 -70.790076 83.537962 -3.518066 -2.491258 -21.562572 -6.562862 2.851594 0.248930 22.244059 -6.988511 2.907314 82.599480 -80.368904 -104.522855 0.434003 7.947665 9.514964 -3.132413 -72.196442 0.285733 -134.619123 82.009740 -133.846180 -3.769471 -16.630426 0.790484 -0.294333 0.689336 -0.108069 -10.345999 -75.493321 29.526060 117.577863 79.506060 114.347338 -16.786445 -23.516639 0.810413 -0.215057 -0.934708 -0.123750
-23.216859 50.331425 27.104807 162.648228 -8.459205 -0.438999 4.196669 7.924739 0.818568 0.212652 0.426714 -0.006769 0.342647 0.722474 -0.017189 3.738210 7.476965 0.115524 2.955557 18.814216 0.718529 5.183896 -0.836359 0.372243 2.575253 6.397573 1.090301 -7.699083 -14.650487 -10.776411 -56.327049 -71.078868 82.104284 -3.486279 -2.507364 -21.543530 -6.552731 2.805622 0.220617 22.176283 -6.944532 2.953920 82.889536 -80.876928 -104.652530 0.204694 8.044360 9.143589 -3.017312 -72.168748 0.248769 -134.511193 81.997852 -133.749875 -3.774462 -16.629558 0.822161 -0.313625 0.696490 -0.105054 -10.333923 -75.462898 29.540732 117.615987 79.504112 114.392661 -16.786311 -23.525245 0.811627 -0.226336 -0.936901 -0.126261
-23.220025 50.329252 27.103741 162.635822 -8.473475 -0.437635 4.155764 7.897723 0.798076 0.238022 0.449595 0.001218 0.344493 0.719659 -0.017729 3.739986 7.477467 0.118222 2.954024 18.814692 0.724117 5.197538 -0.821269 0.377346 2.603324 6.374518 1.096903 -7.687352 -14.655713 -10.718742 -55.136856 -71.412771 80.647613 -3.434697 -2.517052 -21.530224 -6.537276 2.790335 0.207837 22.120190 -6.930461 2.979740 83.096571 -81.425716 -104.706729 -0.008854 8.126159 8.805723 -2.888922 -72.158119 0.181836 -134.412357 81.982956 -133.662575 -3.786594 -16.625802 0.856931 -0.328864 0.700815 -0.098883 -10.371914 -75.445440 29.578408 117.642209 79.494055 114.409386 -16.777167 -23.522690 0.812630 -0.226306 -0.943389 -0.126654
-23.222474 50.327230 27.101410 162.616794 -8.495391 -0.438637 4.151143 7.895508 0.791057 0.235773 0.451469 0.003274 0.347144 0.718336 -0.019566 3.747292 7.483725 0.122718 2.949348 18.812463 0.728240 5.207303 -0.814459 0.385351 2.619971 6.353082 1.100870 -7.663357 -14.669062 -10.653639 -53.720733 -71.816391 78.917940 -3.365618 -2.520669 -21.523613 -6.528569 2.778188 0.200924 22.063773 -6.932877 3.000589 83.147914 -82.007994 -104.597184 -0.206780 8.191869 8.495670 -2.817001 -72.139425 0.162387 -134.376057 81.978466 -133.653415 -3.768510 -16.620400 0.893419 -0.368412 0.700780 -0.109588 -10.396845 -75.421860 29.611572 117.669890 79.486260 114.442988 -16.791763 -23.523435 0.799659 -0.184661 -0.949147 -0.112670
-23.219222 50.325672 27.097117 162.580230 -8.538395 -0.467019 4.168293 7.910972 0.814749 0.236955 0.451934 0.004224 0.346393 0.718666 -0.020286 3.766568 7.501733 0.131770 2.936408 18.803986 0.729118 5.179716 -0.828321 0.414319 2.622893 6.316541 1.101664 -7.624274 -14.681611 -10.583695 -52.015726 -72.286138 76.848958 -3.284271 -2.515530 -21.521158 -6.526475 2.773812 0.199174 21.997460 -6.963063 3.009801 82.899664 -82.611384 -104.178873 -0.385996 8.241273 8.213678 -2.719073 -72.099255 0.179003 -134.197405 81.951554 -133.484079 -3.796904 -16.597773 0.943181 -0.364826 0.687795 -0.108791 -10.475034 -75.374302 29.721196 117.740269 79.485703 114.533938 -16.791625 -23.540653 0.783336 -0.155387 -0.946778 -0.107930
